<svg width="356" height="87" viewBox="0 0 356 87" fill="none" xmlns="http://www.w3.org/2000/svg">
<g clip-path="url(#clip0_16_19)">
<g filter="url(#filter0_i_16_19)">
<path d="M33.8706 71.249C46.7409 42.1699 71.924 -7.471 69.6934 26.5984C66.905 69.1852 90.1596 68.3265 92.2289 49.4083C94.2983 30.49 55.3715 35.9891 40.1069 43.5894C27.8952 49.6697 29.3242 35.5864 31.5651 27.7848" stroke="#09090A" stroke-width="7"/>
</g>
<path d="M128.184 52.24L128.888 49.04H139.288L140.024 52.24H128.184ZM134.04 41.936L130.52 50.16L130.456 50.992L127.352 58H123.096L134.04 34.352L144.984 58H140.728L137.688 51.184L137.592 50.256L134.04 41.936ZM150.229 52.24C150.229 53.2853 150.453 54.096 150.901 54.672C151.349 55.248 152.031 55.536 152.949 55.536C153.61 55.536 154.186 55.408 154.677 55.152C155.167 54.8747 155.551 54.4907 155.829 54C156.106 53.488 156.245 52.9013 156.245 52.24V43.28H159.701V58H156.245V55.728C155.775 56.5813 155.167 57.232 154.421 57.68C153.695 58.1067 152.821 58.32 151.797 58.32C150.154 58.32 148.885 57.808 147.989 56.784C147.114 55.76 146.677 54.3733 146.677 52.624V43.28H150.229V52.24ZM167.538 43.28V58H164.114V43.28H167.538ZM171.922 46.96C171.602 46.704 171.304 46.512 171.026 46.384C170.749 46.256 170.397 46.192 169.97 46.192C169.394 46.192 168.925 46.3413 168.562 46.64C168.2 46.9387 167.933 47.3547 167.762 47.888C167.613 48.4 167.538 49.008 167.538 49.712L166.386 49.04C166.386 47.8667 166.6 46.832 167.026 45.936C167.474 45.0187 168.04 44.2933 168.722 43.76C169.426 43.2267 170.152 42.96 170.898 42.96C171.432 42.96 171.933 43.0453 172.402 43.216C172.872 43.3653 173.266 43.6427 173.586 44.048L171.922 46.96ZM174.369 50.64C174.369 49.1253 174.711 47.792 175.393 46.64C176.097 45.488 177.047 44.592 178.241 43.952C179.436 43.2907 180.791 42.96 182.305 42.96C183.82 42.96 185.164 43.2907 186.337 43.952C187.532 44.592 188.481 45.488 189.185 46.64C189.889 47.792 190.241 49.1253 190.241 50.64C190.241 52.1333 189.889 53.4667 189.185 54.64C188.481 55.792 187.532 56.6987 186.337 57.36C185.164 58 183.82 58.32 182.305 58.32C180.791 58.32 179.436 58 178.241 57.36C177.047 56.6987 176.097 55.792 175.393 54.64C174.711 53.4667 174.369 52.1333 174.369 50.64ZM177.921 50.64C177.921 51.5573 178.113 52.368 178.497 53.072C178.881 53.7547 179.404 54.2987 180.065 54.704C180.727 55.088 181.473 55.28 182.305 55.28C183.116 55.28 183.852 55.088 184.513 54.704C185.196 54.2987 185.729 53.7547 186.113 53.072C186.497 52.368 186.689 51.5573 186.689 50.64C186.689 49.7227 186.497 48.912 186.113 48.208C185.729 47.504 185.196 46.96 184.513 46.576C183.852 46.192 183.116 46 182.305 46C181.473 46 180.727 46.192 180.065 46.576C179.404 46.96 178.881 47.504 178.497 48.208C178.113 48.912 177.921 49.7227 177.921 50.64ZM196.945 43.28V58H193.521V43.28H196.945ZM201.329 46.96C201.009 46.704 200.71 46.512 200.433 46.384C200.155 46.256 199.803 46.192 199.377 46.192C198.801 46.192 198.331 46.3413 197.969 46.64C197.606 46.9387 197.339 47.3547 197.169 47.888C197.019 48.4 196.945 49.008 196.945 49.712L195.793 49.04C195.793 47.8667 196.006 46.832 196.433 45.936C196.881 45.0187 197.446 44.2933 198.129 43.76C198.833 43.2267 199.558 42.96 200.305 42.96C200.838 42.96 201.339 43.0453 201.809 43.216C202.278 43.3653 202.673 43.6427 202.993 44.048L201.329 46.96ZM207.54 53.424C207.54 53.9147 207.658 54.3413 207.892 54.704C208.127 55.0453 208.447 55.3013 208.852 55.472C209.279 55.6427 209.759 55.728 210.292 55.728C210.975 55.728 211.594 55.5893 212.148 55.312C212.724 55.0347 213.183 54.6293 213.524 54.096C213.887 53.5413 214.068 52.9013 214.068 52.176L214.58 54.096C214.58 55.0347 214.303 55.824 213.748 56.464C213.215 57.0827 212.532 57.552 211.7 57.872C210.89 58.1707 210.058 58.32 209.204 58.32C208.287 58.32 207.434 58.1387 206.644 57.776C205.855 57.4133 205.226 56.88 204.756 56.176C204.287 55.472 204.052 54.6187 204.052 53.616C204.052 52.1867 204.554 51.056 205.556 50.224C206.559 49.3707 207.978 48.944 209.812 48.944C210.794 48.944 211.636 49.0507 212.34 49.264C213.066 49.4773 213.663 49.7333 214.132 50.032C214.602 50.3093 214.932 50.5653 215.124 50.8V52.56C214.463 52.0907 213.759 51.7493 213.012 51.536C212.266 51.3227 211.476 51.216 210.644 51.216C209.919 51.216 209.332 51.312 208.884 51.504C208.436 51.6747 208.095 51.92 207.86 52.24C207.647 52.56 207.54 52.9547 207.54 53.424ZM206.452 47.12L205.044 44.688C205.706 44.2827 206.559 43.888 207.604 43.504C208.671 43.12 209.887 42.928 211.252 42.928C212.468 42.928 213.535 43.1093 214.452 43.472C215.391 43.8347 216.127 44.3573 216.66 45.04C217.194 45.7013 217.46 46.5227 217.46 47.504V58H214.068V48.176C214.068 47.7067 213.983 47.3227 213.812 47.024C213.663 46.7253 213.45 46.48 213.172 46.288C212.895 46.096 212.564 45.9573 212.18 45.872C211.796 45.7867 211.38 45.744 210.932 45.744C210.25 45.744 209.599 45.8293 208.98 46C208.383 46.1493 207.86 46.3413 207.412 46.576C206.986 46.7893 206.666 46.9707 206.452 47.12Z" fill="#2B2B2B"/>
</g>
<defs>
<filter id="filter0_i_16_19" x="26.5591" y="11.5923" width="70.249" height="67.0732" filterUnits="userSpaceOnUse" color-interpolation-filters="sRGB">
<feFlood flood-opacity="0" result="BackgroundImageFix"/>
<feBlend mode="normal" in="SourceGraphic" in2="BackgroundImageFix" result="shape"/>
<feColorMatrix in="SourceAlpha" type="matrix" values="0 0 0 0 0 0 0 0 0 0 0 0 0 0 0 0 0 0 127 0" result="hardAlpha"/>
<feOffset dx="1" dy="6"/>
<feGaussianBlur stdDeviation="3.5"/>
<feComposite in2="hardAlpha" operator="arithmetic" k2="-1" k3="1"/>
<feColorMatrix type="matrix" values="0 0 0 0 1 0 0 0 0 1 0 0 0 0 1 0 0 0 0.2 0"/>
<feBlend mode="normal" in2="shape" result="effect1_innerShadow_16_19"/>
</filter>
<clipPath id="clip0_16_19">
<rect width="363" height="95" fill="white" transform="translate(-7 -8)"/>
</clipPath>
</defs>
</svg>
